<?xml version="1.0" standalone="no"?>
<!DOCTYPE svg PUBLIC "-//W3C//DTD SVG 20010904//EN"
 "http://www.w3.org/TR/2001/REC-SVG-20010904/DTD/svg10.dtd">
<svg version="1.0" xmlns="http://www.w3.org/2000/svg"
 width="1808.000000pt" height="512.000000pt" viewBox="0 0 1808.000000 512.000000"
 preserveAspectRatio="xMidYMid meet">

<g transform="translate(0.000000,512.000000) scale(0.100000,-0.100000)"
fill="#000000" stroke="none">
<path d="M8657 4415 c-170 -46 -311 -85 -313 -88 -2 -2 32 -83 76 -181 134
-297 273 -695 336 -960 10 -43 23 -80 29 -82 7 -3 587 170 672 201 22 7 -128
466 -243 741 -90 218 -212 454 -233 453 -9 0 -155 -38 -324 -84z"/>
<path d="M10030 4360 c0 -89 -20 -240 -56 -420 -142 -717 -384 -1178 -834
-1587 -287 -262 -587 -448 -962 -597 -82 -33 -148 -60 -148 -62 0 -2 21 -23
47 -46 137 -126 288 -321 389 -503 26 -47 52 -85 57 -85 14 0 237 118 392 208
999 576 1529 1354 1796 2637 23 110 50 227 60 260 10 33 15 63 11 66 -6 5
-729 179 -746 179 -3 0 -6 -23 -6 -50z"/>
<path d="M7589 4228 l-326 -90 60 -127 c123 -261 233 -565 321 -899 25 -92 48
-184 52 -205 3 -20 9 -39 13 -41 6 -4 679 199 687 207 12 11 -152 519 -235
730 -53 133 -235 519 -243 516 -2 -1 -150 -42 -329 -91z"/>
</g>
</svg>
