<?xml version="1.0" standalone="no"?>
<!DOCTYPE svg PUBLIC "-//W3C//DTD SVG 20010904//EN"
 "http://www.w3.org/TR/2001/REC-SVG-20010904/DTD/svg10.dtd">
<svg version="1.0" xmlns="http://www.w3.org/2000/svg"
 width="512.000000pt" height="512.000000pt" viewBox="0 0 512.000000 512.000000"
 preserveAspectRatio="xMidYMid meet">
<metadata>
Created by potrace 1.14, written by Peter Selinger 2001-2017
</metadata>
<g transform="translate(0.000000,512.000000) scale(0.100000,-0.100000)"
fill="#000000" stroke="none">
<path d="M2425 4260 c-89 -26 -218 -62 -238 -65 -9 -2 -68 -18 -130 -35 -61
-17 -129 -35 -149 -41 -21 -5 -38 -12 -38 -14 0 -3 16 -40 36 -82 169 -364
289 -698 380 -1058 9 -38 21 -74 25 -79 6 -6 348 91 469 134 14 5 66 21 115
36 50 14 93 28 97 30 13 8 -125 432 -219 674 -24 63 -89 206 -144 318 -112
227 -97 214 -204 182z"/>
<path d="M3559 4133 c0 -32 -2 -67 -4 -78 -1 -11 -6 -47 -9 -80 -3 -33 -8 -71
-11 -85 -2 -14 -7 -41 -9 -60 -3 -19 -8 -46 -10 -60 -11 -51 -16 -76 -21 -105
-3 -16 -8 -38 -11 -47 -3 -9 -6 -25 -8 -35 -12 -59 -49 -205 -64 -248 -9 -27
-17 -52 -17 -55 -9 -53 -104 -290 -169 -420 -125 -250 -257 -433 -466 -640
-313 -312 -627 -514 -1074 -694 -50 -20 -95 -36 -102 -36 -31 0 -17 -23 74
-116 157 -161 284 -335 368 -504 9 -16 19 -30 24 -30 15 0 323 161 400 210 8
5 40 23 70 41 144 83 382 252 526 374 98 82 314 304 405 415 266 325 483 733
627 1180 40 122 80 257 87 289 2 9 17 72 34 141 16 69 34 152 40 185 21 116
46 223 67 284 8 24 11 47 7 51 -7 6 -226 62 -300 76 -12 2 -88 20 -170 40 -81
20 -155 37 -163 39 -8 2 -35 8 -60 14 -25 6 -48 11 -52 11 -5 0 -8 -26 -9 -57z"/>
<path d="M1130 4011 c-173 -48 -320 -89 -326 -92 -8 -2 10 -48 46 -124 135
-279 263 -647 355 -1021 15 -61 30 -116 34 -122 4 -7 75 10 216 54 116 35 248
76 295 90 47 14 95 29 108 35 13 5 31 9 42 9 10 0 21 4 24 8 11 18 -133 475
-224 712 -45 118 -243 542 -252 539 -2 -1 -145 -41 -318 -88z"/>
</g>
</svg>
